{"buffers":[{"uri":"campfire.bin","byteLength":47480}],"asset":{"version":"2.0","generator":"gltfpack 0.18"},"extensionsUsed":["KHR_mesh_quantization"],"extensionsRequired":["KHR_mesh_quantization"],"bufferViews":[{"buffer":0,"byteOffset":0,"byteLength":14192,"byteStride":8,"target":34962},{"buffer":0,"byteOffset":14192,"byteLength":7096,"byteStride":4,"target":34962},{"buffer":0,"byteOffset":21288,"byteLength":21168,"target":34963},{"buffer":0,"byteOffset":42456,"byteLength":1256},{"buffer":0,"byteOffset":43712,"byteLength":3768}],"accessors":[{"bufferView":0,"byteOffset":0,"componentType":5123,"count":386,"type":"VEC3","min":[1719,7940,3111],"max":[6842,14869,8226]},{"bufferView":1,"byteOffset":0,"componentType":5120,"count":386,"type":"VEC3","normalized":true},{"bufferView":2,"byteOffset":0,"componentType":5123,"count":2304,"type":"SCALAR"},{"bufferView":0,"byteOffset":3088,"componentType":5123,"count":42,"type":"VEC3","min":[3915,0,3915],"max":[4646,768,4683]},{"bufferView":1,"byteOffset":1544,"componentType":5120,"count":42,"type":"VEC3","normalized":true},{"bufferView":2,"byteOffset":4608,"componentType":5123,"count":240,"type":"SCALAR"},{"bufferView":0,"byteOffset":3424,"componentType":5123,"count":960,"type":"VEC3","min":[0,5921,0],"max":[8579,8436,8598]},{"bufferView":1,"byteOffset":1712,"componentType":5120,"count":960,"type":"VEC3","normalized":true},{"bufferView":2,"byteOffset":5088,"componentType":5123,"count":5736,"type":"SCALAR"},{"bufferView":0,"byteOffset":11104,"componentType":5123,"count":386,"type":"VEC3","min":[905,7211,924],"max":[7656,16383,7674]},{"bufferView":1,"byteOffset":5552,"componentType":5120,"count":386,"type":"VEC3","normalized":true},{"bufferView":2,"byteOffset":16560,"componentType":5123,"count":2304,"type":"SCALAR"},{"bufferView":3,"byteOffset":0,"componentType":5126,"count":314,"type":"SCALAR","min":[0],"max":[10.4333344]},{"bufferView":4,"byteOffset":0,"componentType":5126,"count":314,"type":"VEC3"}],"materials":[{"name":"Fire.1","pbrMetallicRoughness":{"baseColorFactor":[0.800000072,0.375129163,0.00506868167,0.275568187],"metallicFactor":0,"roughnessFactor":0.5},"emissiveFactor":[1,1,0],"alphaMode":"BLEND","doubleSided":true},{"name":"Fire.3","pbrMetallicRoughness":{"baseColorFactor":[0.800000072,0.29149425,0,0.0170454383],"metallicFactor":0,"roughnessFactor":0.5},"emissiveFactor":[1,1,1],"alphaMode":"BLEND","doubleSided":true},{"name":"Log","pbrMetallicRoughness":{"baseColorFactor":[0.269153953,0.0768239275,0.015920965,1],"metallicFactor":0.414772719},"doubleSided":true},{"name":"Fire.002","pbrMetallicRoughness":{"baseColorFactor":[0.800000072,0.14052844,0.0110754846,0.29687503],"metallicFactor":0,"roughnessFactor":0.5},"emissiveFactor":[1,0.279327154,0],"alphaMode":"BLEND","doubleSided":true}],"meshes":[{"primitives":[{"attributes":{"POSITION":0,"NORMAL":1},"indices":2,"material":0},{"attributes":{"POSITION":3,"NORMAL":4},"indices":5,"material":1},{"attributes":{"POSITION":6,"NORMAL":7},"indices":8,"material":2},{"attributes":{"POSITION":9,"NORMAL":10},"indices":11,"material":3}]}],"animations":[{"name":"Fire.1Action","samplers":[{"input":12,"output":13}],"channels":[{"sampler":0,"target":{"node":1,"path":"translation"}}]}],"nodes":[{"mesh":0,"translation":[-1.26828384,-2.12695074,-1.27372825],"scale":[0.000296293787,0.000296293787,0.000296293787]},{"name":"Fire.1"}],"scenes":[{"name":"Scene","nodes":[0,1]}],"scene":0}